<?xml version="1.0" encoding="UTF-8"?>
<svg id="Layer_1" data-name="Layer 1" xmlns="http://www.w3.org/2000/svg" viewBox="0 0 673 768">
  <defs>
    <style>
      .cls-1 {
        fill: #fff;
      }

      .cls-2 {
        fill: #662d91;
      }

      .cls-3 {
        fill: #ccdae6;
      }
    </style>
  </defs>
  <path class="cls-2" d="m652.76,111.79H20.24V20.21h632.52v91.57Z"/>
  <path class="cls-2" d="m652.68,747.88H20.32v-91.58h632.36v91.58Z"/>
  <path class="cls-1" d="m253.15,190.46c-22.9,6.95-45.42,13.79-68.02,20.65-3.4-4.35-5.13-9.35-8.68-13.36-7.07-7.96-16.17-11.65-26.16-12.56-7.32-.67-14.92-1.18-22.29.77-5.85,1.55-10.49,4.77-11.77,10.8-1.37,6.43.7,11.55,6.38,15.99,6.88,5.38,15.11,4.87,22.66,7.02,12.3,3.51,24.93,5.89,37.43,8.67,11.52,2.56,22.74,6.12,33.34,11.21,11.44,5.49,21.06,12.93,29.18,23.36,13.01,16.73,15.82,35.37,14.56,55.25-.46,7.22-2.39,14.29-5.73,21.2-3.06,6.35-5.32,13.03-9.72,18.7-13.42,17.31-31.19,28.16-51.77,34.78-23.9,7.69-48.39,8.2-73.17,6.17-13.26-1.08-25.92-4.17-38.18-9.1-16.74-6.74-30.96-16.87-41.81-31.51-8.92-12.04-15.22-25.29-19.31-40.25,10.13-1.75,20.25-3.47,30.36-5.27,7.75-1.38,15.48-2.88,23.22-4.32,6.46-1.2,12.91-2.43,19.38-3.58,2.55-.45,4.08.15,5.1,3.14,5.62,16.45,17.8,24.95,34.55,27.77,10.59,1.78,21,1.33,31.36-1.5,6.4-1.75,11.22-4.91,11.99-12.06.85-7.78-2.21-12.77-9.84-16.61-8.75-4.4-18.25-6.07-27.74-7.86-12.47-2.35-24.93-4.95-36.9-9.1-13.14-4.55-26.54-8.58-38.24-16.69-8.06-5.59-13.93-12.64-18.74-21.12-3.61-6.36-7.15-12.61-8.62-19.8-4.92-24.13-1.52-46.63,13.1-67,14.68-20.46,35.17-31.4,59.29-36.21,18.25-3.64,36.57-4.24,55.25-2.43,42.6,4.12,72.78,24.48,89.52,64.83Z"/>
  <path class="cls-1" d="m469,644v-218.37c2.08-1.1,4.11-.61,6.05-.61,36.65-.03,73.3-.12,109.94.02,15.9.06,31.21,2.99,43.23,14.3,14.82,13.95,21.18,31.07,17.95,51.68-3.01,19.15-13.51,31.61-31.5,38.15-.43.16-.75.6-1.43,1.15,3.33,1.28,6.36,2.74,9.54,3.57,3.29.85,7.14,2.31,9.14,3.85,4,3.07,8.05,6.78,11.16,11.09,5.34,7.41,8.17,15.46,9.2,24.78,1.97,17.86-2.08,33.74-12,48.42-7.36,10.89-18.43,15.66-30.55,18.9-9.66,2.58-19.45,3.17-29.39,3.13-35.15-.14-70.3-.06-105.44-.06h-5.9Zm63.06-49.1c12.61,0,24.62.73,36.5-.22,10.83-.86,18.24-9.05,18.43-18.68.21-10.52-7.08-17.78-17.55-19.16-12.42-1.63-24.76-.35-37.38-.95v39Zm.02-86.81c11.79,0,23.12.4,34.4-.12,9.51-.44,16.03-7.31,16.52-16.04.6-10.46-3.89-17.23-13.87-18.59-12.18-1.66-24.5-.5-37.05-.69v35.44Z"/>
  <path class="cls-1" d="m378.96,540.04c-.73-7.68-1.04-15.43-2.35-23-.7-4.03-.51-7.95-.54-11.89-.17-25.66-.17-51.32-.21-76.98,0-.82.11-1.64.19-2.81h54.7v218.64h-16.9c-11.5,0-23-.09-34.49.06-3.02.04-4.56-.99-6.18-3.65-12.29-20.14-25.06-39.99-37.25-60.19-9.26-15.35-19.54-30.05-28.11-45.85-3.9-7.19-6.6-14.98-11.89-23.22,5.37,44.99,1.63,88.65,3.12,132.55h-55.73v-218.07c1.08-1.15,2.68-.6,4.1-.61,18.66-.04,37.33.07,55.99-.11,3.29-.03,5.01,1.09,6.71,3.8,14.64,23.4,29.13,46.91,44.32,69.95,8.84,13.42,16.44,27.51,24.58,41.31.12.45.23.9.35,1.34.28-.63.77-1.46-.41-1.29Z"/>
  <path class="cls-1" d="m20.21,644v-218.32c1.73-1.2,3.61-.64,5.37-.65,29.66-.04,59.31.03,88.97-.07,6.2-.02,12.69.24,18.38,1.5,37.98,8.39,63.52,31.22,76.15,68.3,6.5,19.09,7.99,38.49,5.06,58.35-5.87,39.75-26.19,68.53-63.86,84.12-10.26,4.25-20.88,6.81-32.07,6.79-31.16-.06-62.31-.02-93.47-.02-1.32,0-2.65,0-4.53,0Zm68.09-168.83v117.89c4.81,0,9.29-.18,13.75.03,13.94.67,23.64-6.76,31.31-17.09,6.66-8.97,8.76-19.78,9.99-30.74,2.13-19.07-.16-37.3-10.04-54.08-5.6-9.52-14.1-15-25.08-15.92-6.43-.54-12.95-.1-19.91-.1Z"/>
  <path class="cls-1" d="m374.03,329.9h103.82v65.83h-186.57V129.41h81.9c0,66.42,0,132.98,0,199.54-.11.66.18.97.84.95Z"/>
  <path class="cls-1" d="m520.04,192.91h-55.63v-63.51h188.32v63.4h-54.7v202.95h-77.99v-202.83Z"/>
  <path class="cls-3" d="m374.03,329.9c-.66.02-.95-.29-.84-.95.28.32.56.63.84.95Z"/>
  <path class="cls-1" d="m378.96,540.04c1.18-.17.69.65.41,1.29-.12-.45-.23-.9-.35-1.34,0,0-.06.06-.06.06Z"/>
</svg>