<?xml version="1.0" encoding="UTF-8"?>
<svg id="Layer_1" data-name="Layer 1" xmlns="http://www.w3.org/2000/svg" viewBox="0 0 1566 316">
  <defs>
    <style>
      .cls-1 {
        fill: #fff;
      }
    </style>
  </defs>
  <path class="cls-1" d="m1494.18,153.33c.52.63.97,1.04,1.68,1.15,4.82.73,9.28,2.6,13.73,4.44,1.43.59,2.95.96,4.31,1.78,3.72,2.24,7.31,4.68,10.83,7.23,1.75,1.27,3.44,2.57,4.98,4.1,4.36,4.33,7.58,9.31,10.05,15,1.96,4.5,3.6,9.03,4.49,13.8,1.71,9.16,1.57,18.34.48,27.59-1.09,9.22-4.2,17.7-8.27,25.9-2.7,5.43-6.06,10.45-9.82,15.2-1.07,1.35-2.54,2.37-3.81,3.56-1.72,1.6-3.3,3.38-5.16,4.78-1.54,1.15-3.39,1.9-5.14,2.76-2.36,1.16-4.7,2.4-7.14,3.36-2.88,1.13-5.8,2.23-8.8,2.92-5.07,1.17-10.1,2.52-15.27,3.22-8.26,1.12-16.55,1.92-24.88,1.93-43.74.05-87.49.02-131.23.02-.82,0-1.66.16-2.61-.26V25.36c.91-.45,1.76-.27,2.57-.27,44.58,0,89.15-.08,133.73.04,11.57.03,23.03,1.48,34.1,5.06,8.77,2.83,16.61,7.33,23.49,13.56,5.05,4.57,9.07,9.86,12.37,15.76,3.08,5.5,5.62,11.19,7.26,17.32,2.72,10.19,3.39,20.5,1.25,30.8-1.89,9.15-5.66,17.57-11.28,25.17-2.22,3-4.89,5.55-7.45,8.17-2.12,2.17-4.64,4.06-7.57,5.33-2.23.97-4.31,2.29-6.55,3.33-3.32,1.54-6.77,2.64-10.34,3.73Zm-96.2,79.29c.97,0,1.7,0,2.43,0,7.08,0,14.16-.01,21.25-.02,6.58-.01,13.17.11,19.75-.08,6.41-.18,12.42-2.02,17.16-6.49,6.84-6.45,9.43-14.39,6.85-23.63-2.32-8.31-7.54-13.93-15.94-16.37-4.02-1.16-8.15-1.87-12.31-1.91-12.41-.12-24.83-.05-37.25-.04-.64,0-1.35-.21-1.93.5v48.03Zm.04-105.5c.93.47,1.6.33,2.26.33,11.99.01,23.98,0,35.97.03,2.09,0,4.16-.2,6.21-.49,7.61-1.06,13.12-5.15,16.69-11.88,1.86-3.51,2.52-7.33,2.48-11.28-.1-10.27-5.79-17.3-15.27-19.79-4.29-1.13-8.66-1.55-13.08-1.55-11.16-.01-22.31-.01-33.47,0-.56,0-1.17-.18-1.78.37v44.28Z"/>
  <path class="cls-1" d="m1275.88,291.77c-1.11.43-1.95.29-2.78.29-20.33,0-40.66-.02-60.99.05-1.9,0-2.98-.56-3.99-2.19-24.02-38.91-48.11-77.77-72.17-116.65-9.83-15.9-18.03-32.64-25.79-49.62-.55-1.2-1.15-2.38-1.81-3.53,1.58,7.68,3.31,15.3,4.39,23.05.62,4.45,1.25,8.9,1.35,13.4.93,42.8.15,85.6.4,128.4.01,2.24,0,4.48,0,6.66-2.01.55-63.59.64-66.35.12V25.47c.6-.57,1.3-.39,1.94-.39,24.41,0,48.83,0,73.24-.03,1.6,0,2.39.5,3.25,1.96,2.85,4.87,6.01,9.55,9.05,14.3,4.54,7.1,9.07,14.19,13.47,21.38,4.07,6.64,8.49,13.07,12.68,19.64,7.57,11.86,15.09,23.76,22.61,35.65,6.07,9.58,11.88,19.31,17.47,29.19,4,7.08,7.53,14.38,11.2,21.63.69,1.37.99,2.97,2.42,4.55-.27-2.02-.39-3.57-.7-5.08-1.03-4.97-1.45-10.03-2.35-15.02-.28-1.52-.62-3.16-.6-4.74.02-1.58-.52-3.09-.58-4.57-.52-13.29-1.97-26.52-1.87-39.85.18-25.24.05-50.49.06-75.74,0-.98-.18-1.99.26-3.11h66.18v266.54Z"/>
  <path class="cls-1" d="m776.01,25.44c.94-.57,1.79-.35,2.6-.36,34.33-.01,68.66-.11,102.99.04,14.62.06,29.07,1.87,43.22,5.71,12.76,3.46,24.7,8.73,35.52,16.33,9.66,6.79,18.03,14.95,25.04,24.51,12.19,16.62,20.67,34.91,24.91,55.09,3.19,15.18,3.9,30.52,2.44,45.97-1.09,11.59-2.77,23.08-6.56,34.13-5.32,15.52-13.03,29.76-23.74,42.26-6.62,7.72-13.86,14.81-22.15,20.77-8.24,5.92-17.23,10.4-26.7,13.95-3.3,1.24-6.64,2.46-10.05,3.33-8.48,2.17-17.04,3.9-25.82,4.5-4.66.32-9.32.4-13.98.4-34.66,0-69.33,0-103.99,0-.99,0-1.99.15-3.07-.2-.44-.99-.23-2.08-.23-3.13-.01-40.91,0-81.83,0-122.74,0-45.83,0-91.66,0-137.49,0-1.06.22-2.14-.41-3.07Zm82.32,205.06c.64.07.96.13,1.29.13,7.08,0,14.16.03,21.25,0,2.42,0,4.81-.19,7.17-.84,11.04-3,19.44-9.56,25.88-18.86,8-11.55,11.54-24.61,13.06-38.36.76-6.88.65-13.8.55-20.72-.16-11.53-2.28-22.68-6.52-33.38-2.86-7.22-6.3-14.13-11.79-19.84-4.28-4.45-9.07-8.07-14.9-10.22-3.93-1.45-7.99-2.37-12.18-2.43-7.5-.1-15-.07-22.5-.1-.41,0-.83,0-1.31.45v144.15Z"/>
  <path class="cls-1" d="m21.31,214.82c25.19-4.54,50.37-9.07,75.2-13.54,1.17.49,1.05,1.31,1.23,1.89,2.61,8.13,7.34,14.8,13.87,20.21,4.12,3.42,8.81,5.76,14,7.2,10.75,2.99,21.62,3.2,32.64,2.11,3.96-.39,7.65-1.67,10.92-3.45,5.15-2.79,8.37-7.39,7.81-13.67-.34-3.86-2.02-7.3-4.77-10-1.37-1.35-3.2-2.31-4.97-3.15-3.97-1.89-7.92-3.79-12.36-4.54-2.2-.37-4.41-1.04-6.59-1.64-3.52-.98-7.13-1.48-10.67-2.32-4.67-1.12-9.39-2.04-14.07-3.13-2.07-.48-4.14-.95-6.2-1.43-1.88-.44-3.78-.98-5.66-1.53-7.61-2.22-15.2-4.53-22.61-7.37-4.35-1.67-8.6-3.62-12.83-5.58-4.46-2.06-8.71-4.54-12.68-7.42-2.84-2.06-5.88-3.92-8.22-6.58-2.18-2.47-4.24-5.06-6.25-7.67-3.2-4.18-5.8-8.74-8-13.51-2.76-5.98-4.61-12.21-5.56-18.77-2.02-14.02-.81-27.71,3.95-41.01,3.4-9.5,8.64-17.96,15.34-25.52,12.43-14.02,27.93-22.95,45.86-27.9,17.51-4.83,35.4-6.22,53.46-5.4,14.1.64,27.95,2.92,41.28,7.81,11.55,4.24,22.03,10.27,31.16,18.53,6.37,5.76,12.19,12.03,16.62,19.46,3.36,5.64,6.3,11.49,8.91,17.51.27.63.5,1.22.12,2.17-22.14,6.71-44.45,13.47-66.86,20.26-1.3-2.54-2.27-5.26-3.87-7.68-5.79-8.79-13.82-14.42-23.93-17.1-8.32-2.2-16.75-2.66-25.22-1.03-3.6.69-7.26,1.45-10.33,3.6-2.63,1.84-4.64,4.31-5.58,7.43-1.67,5.54-.16,13.13,5.68,16.65,2.03,1.22,4.2,2.3,6.44,3.05,4.34,1.46,8.72,2.78,13.19,3.84,2.37.56,4.92.58,7.13,1.81,3.95-.19,7.44,1.95,11.33,2.21,2.74.18,5.33,1.41,8.04,1.99,5.42,1.17,10.79,2.54,16.16,3.91,3.85.99,7.67,2.08,11.48,3.2,5.61,1.66,11.26,3.25,16.68,5.48,5.44,2.23,10.67,4.89,15.53,8.25,17.1,11.83,27.24,28.09,30.91,48.48,1.87,10.37,1.59,20.73-.3,31.05-2.61,14.28-9.19,26.62-18.74,37.46-8.9,10.11-19.66,17.63-31.81,23.3-12.69,5.93-26.05,9.55-39.82,11.66-10.73,1.65-21.56,1.84-32.4,1.67-7.43-.12-14.77-.94-22.13-1.87-6.88-.87-13.66-2.17-20.27-4.18-13.82-4.2-25.07-9.69-35.48-17.64-1.71-1.3-3.25-2.82-5.16-3.89-1.39-.77-2.07-2.36-3.23-3.43-1.58-1.46-3.38-2.78-4.64-4.49-1.38-1.87-2.93-3.6-4.27-5.5-1.66-2.36-3.85-4.31-5.23-6.89-1.02-1.9-1.97-3.84-3.08-5.68-4.91-8.17-8.28-16.98-11.19-26-.19-.59-.21-1.11.02-1.67Z"/>
  <path class="cls-1" d="m291.79,25.36c2.12-.39,79.08-.4,81.57.02v201.06h105v65.46h-186.41c-.5-2.11-.66-263.93-.16-266.55Z"/>
  <path class="cls-1" d="m652.92,25.29v63.78h-55.03v202.54c-2.07.55-72.65.75-77.44.25-.06-7.42-.02-14.88-.03-22.34,0-7.5,0-15,0-22.5s0-15,0-22.5,0-15,0-22.5v-22.75c0-7.5,0-15,0-22.5s0-15,0-22.5,0-15,0-22.5v-22.7h-55.28V25.46c1.74-.48,183.48-.68,187.78-.17Z"/>
</svg>